<?xml version="1.0" encoding="UTF-8"?>
<svg version="1.1" xmlns="http://www.w3.org/2000/svg" width="3800" height="2800">
<path d="M0 0 C1.03060547 0.48106201 2.06121094 0.96212402 3.12304688 1.45776367 C6.61174818 3.09946006 10.08959599 4.7627348 13.5625 6.4375 C14.19246887 6.74099365 14.82243774 7.0444873 15.47149658 7.35717773 C52.58610078 25.27177003 87.58877064 46.4234335 120.66503906 71.02832031 C122.59259243 72.45984862 124.52648795 73.88249637 126.4609375 75.3046875 C139.60215197 85.01121116 152.14113347 95.43229795 164.54174805 106.06274414 C166.82134914 108.00955127 169.06274895 109.7709993 171.5625 111.4375 C171.5625 112.0975 171.5625 112.7575 171.5625 113.4375 C172.09875 113.664375 172.635 113.89125 173.1875 114.125 C176.38710161 115.89320089 178.85287223 117.97420203 181.5625 120.4375 C181.5625 121.0975 181.5625 121.7575 181.5625 122.4375 C182.15490479 122.70320801 182.74730957 122.96891602 183.35766602 123.24267578 C185.61949757 124.46838762 187.05640782 125.71498921 188.83984375 127.5546875 C189.73413086 128.46541016 189.73413086 128.46541016 190.64648438 129.39453125 C191.25814453 130.02746094 191.86980469 130.66039062 192.5 131.3125 C196.36836443 135.29162354 200.19601678 138.99747061 204.5625 142.4375 C205.59705506 143.55223308 206.59845261 144.6987574 207.5625 145.875 C210.87754447 149.76436139 214.42952518 153.3498023 218.0625 156.9375 C222.13341498 160.96713828 226.09417829 165.01471071 229.796875 169.390625 C232.9635185 173.06168958 236.31108657 176.57533183 239.62109375 180.1171875 C241.5625 182.4375 241.5625 182.4375 241.5625 184.4375 C242.2225 184.4375 242.8825 184.4375 243.5625 184.4375 C244.97956502 185.98638502 246.32059496 187.60511534 247.625 189.25 C248.42292969 190.24773437 249.22085938 191.24546875 250.04296875 192.2734375 C250.45724121 192.79518555 250.87151367 193.31693359 251.29833984 193.85449219 C253.31785385 196.3833699 255.38031174 198.87674519 257.4375 201.375 C264.5625 210.04502688 264.5625 210.04502688 264.5625 212.4375 C265.2225 212.4375 265.8825 212.4375 266.5625 212.4375 C268.10600402 214.40531388 269.52921025 216.37535165 270.9375 218.4375 C271.84319404 219.73697406 272.75082221 221.03510175 273.66015625 222.33203125 C274.13598145 223.01088379 274.61180664 223.68973633 275.10205078 224.38916016 C277.45473608 227.68889764 279.91971618 230.90135201 282.375 234.125 C291.70769627 246.45787069 300.4369802 259.27812159 308.5625 272.4375 C309.19414062 273.4584375 309.82578125 274.479375 310.4765625 275.53125 C311.83698281 277.73733699 313.19369627 279.94571375 314.546875 282.15625 C315.81776906 284.22514731 317.09779818 286.28848685 318.390625 288.34375 C365.34093061 363.30642282 396.72202885 447.44633991 423.75 645.625 C423.74909363 646.98404449 423.74909363 646.98404449 423.74816895 648.37054443 C423.6166121 721.78728382 409.65859742 795.10123388 377.5625 861.4375 C377.06427734 862.47100586 376.56605469 863.50451172 376.05273438 864.56933594 C367.93799415 881.3195208 359.09218672 897.07988638 348.5625 912.4375 C348.02367188 913.23027344 347.48484375 914.02304688 346.9296875 914.83984375 C338.2673521 927.41487655 328.99877965 939.43755467 318.89892578 950.88769531 C317.50369342 952.50569587 316.17458145 954.16788139 314.83984375 955.8359375 C314.08832031 956.69445313 313.33679687 957.55296875 312.5625 958.4375 C311.9025 958.4375 311.2425 958.4375 310.5625 958.4375 C310.2938916 959.03135498 310.0252832 959.62520996 309.74853516 960.23706055 C308.55717768 962.44737445 307.36038102 963.88397183 305.5859375 965.64453125 C305.00199219 966.22734863 304.41804688 966.81016602 303.81640625 967.41064453 C303.19636719 968.01763184 302.57632813 968.62461914 301.9375 969.25 C301.29941406 969.88019043 300.66132813 970.51038086 300.00390625 971.15966797 C295.65864148 975.42639053 291.22167711 979.5157466 286.5625 983.4375 C285.50400369 984.35799158 284.44683933 985.28001586 283.390625 986.203125 C216.03390254 1044.88525983 126.07586975 1076.46633153 37.04003906 1076.67773438 C34.5654192 1076.68748849 32.09161588 1076.71866573 29.6171875 1076.75 C19.83300141 1076.8129067 11.06331983 1076.00644109 1.5625 1073.4375 C1.2325 1071.4575 0.9025 1069.4775 0.5625 1067.4375 C11.37284488 1062.22338839 22.19199757 1057.73544108 33.625 1054.0625 C73.68637145 1041.10631281 110.50583721 1021.88100372 144.3125 996.85546875 C144.87839844 996.43700684 145.44429687 996.01854492 146.02734375 995.58740234 C147.32476752 994.61557252 148.60229071 993.61725969 149.875 992.61328125 C151.5625 991.4375 151.5625 991.4375 153.5625 991.4375 C153.5625 990.7775 153.5625 990.1175 153.5625 989.4375 C155.2125 988.7775 156.8625 988.1175 158.5625 987.4375 C158.5625 986.7775 158.5625 986.1175 158.5625 985.4375 C160.27582754 983.85216298 162.05939047 982.34208785 163.875 980.875 C164.86113281 980.06933594 165.84726563 979.26367188 166.86328125 978.43359375 C169.5625 976.4375 169.5625 976.4375 172.5625 975.4375 C172.8925 974.4475 173.2225 973.4575 173.5625 972.4375 C174.91796875 971.10546875 174.91796875 971.10546875 176.75 969.625 C186.7447839 961.1456707 197.26899645 951.37775533 204.5625 940.4375 C205.2225 940.4375 205.8825 940.4375 206.5625 940.4375 C206.88734375 939.66019531 206.88734375 939.66019531 207.21875 938.8671875 C209.11383623 935.44060717 211.579354 932.57921456 214.0625 929.5625 C223.39563376 918.04671916 231.67228921 905.97497256 239.5625 893.4375 C240.17222656 892.50679687 240.78195312 891.57609375 241.41015625 890.6171875 C249.02725139 878.74680994 255.20782533 866.01256784 261.5625 853.4375 C261.96500977 852.64859375 262.36751953 851.8596875 262.78222656 851.046875 C292.19250883 793.05632783 306.53869484 723.72230934 306.765625 658.8984375 C306.77269009 657.53699205 306.77982277 656.17554694 306.78701782 654.81410217 C306.80656429 650.4802293 306.81171067 646.14641281 306.8125 641.8125 C306.81279457 641.07283619 306.81308914 640.33317238 306.81339264 639.57109451 C306.81486161 616.73541936 306.49165353 594.11465399 303.5625 571.4375 C303.46304077 570.65165527 303.36358154 569.86581055 303.2611084 569.05615234 C293.11944655 489.22036496 270.33368002 412.4399165 214.97412109 294.06494141 C213.35533716 291.05190911 211.75012656 288.03179874 210.14453125 285.01171875 C203.90086554 273.30063595 197.56062288 261.71455403 190.5625 250.4375 C189.98113281 249.47714844 189.39976562 248.51679687 188.80078125 247.52734375 C176.75461347 227.69428226 164.0086211 208.34708776 150.5625 189.4375 C149.96775879 188.60041504 149.37301758 187.76333008 148.76025391 186.90087891 C141.89053638 177.25629652 134.86186904 167.76125823 127.5625 158.4375 C126.64709343 157.26305356 125.73173018 156.08857335 124.81640625 154.9140625 C119.86215345 148.57072667 114.84771429 142.28346373 109.73046875 136.0703125 C108.28935627 134.32020474 106.85440597 132.56500388 105.42578125 130.8046875 C96.70516211 120.06439176 87.79073991 109.51910563 78.21948242 99.52392578 C74.5625 95.65139326 74.5625 95.65139326 74.5625 93.4375 C73.9025 93.4375 73.2425 93.4375 72.5625 93.4375 C71.1171875 91.96875 71.1171875 91.96875 69.4375 89.9375 C66.18356119 86.0875766 62.71477282 82.57685665 59.06640625 79.1015625 C57.5625 77.4375 57.5625 77.4375 57.5625 75.4375 C56.5725 75.1075 55.5825 74.7775 54.5625 74.4375 C52.984375 72.8359375 52.984375 72.8359375 51.3125 70.8125 C46.48072074 65.12445607 41.44110961 60.04505888 35.5625 55.4375 C33.25 53.3125 33.25 53.3125 31.5625 51.4375 C31.5625 50.7775 31.5625 50.1175 31.5625 49.4375 C30.99015625 49.19386719 30.4178125 48.95023438 29.828125 48.69921875 C27.15816462 47.21232702 25.42420993 45.45666092 23.3125 43.25 C18.28331036 38.10519681 12.95974996 33.43152248 7.4362793 28.83105469 C6.48793213 28.04118164 5.53958496 27.25130859 4.5625 26.4375 C5.03969482 27.43152832 5.51688965 28.42555664 6.00854492 29.44970703 C21.706213 62.1901327 36.2316749 95.07141935 48.73114014 129.17059326 C49.53584878 131.36482892 50.3441139 133.55772782 51.15283203 135.75048828 C79.92947354 213.98230385 97.21439558 295.60673652 100.5625 385.4375 C100.59859375 386.51273926 100.6346875 387.58797852 100.671875 388.69580078 C102.61353323 457.70961545 90.86160193 531.45586154 59.5625 593.4375 C59.10488281 594.35547363 58.64726563 595.27344727 58.17578125 596.21923828 C50.20402562 612.13762846 41.3323198 627.24185181 30.5625 641.4375 C29.79292969 642.47390625 29.02335937 643.5103125 28.23046875 644.578125 C23.50824182 650.88349916 18.5503075 656.83765739 13.14135742 662.56811523 C11.04789506 664.78696226 9.26208278 666.88812583 7.5625 669.4375 C6.9025 669.4375 6.2425 669.4375 5.5625 669.4375 C5.2325 670.4275 4.9025 671.4175 4.5625 672.4375 C3.9025 672.4375 3.2425 672.4375 2.5625 672.4375 C2.2325 673.4275 1.9025 674.4175 1.5625 675.4375 C0.9025 675.4375 0.2425 675.4375 -0.4375 675.4375 C-0.7675 676.4275 -1.0975 677.4175 -1.4375 678.4375 C-3.1796875 680.2265625 -3.1796875 680.2265625 -5.3125 682.0625 C-6.01117187 682.67351563 -6.70984375 683.28453125 -7.4296875 683.9140625 C-9.4375 685.4375 -9.4375 685.4375 -12.4375 686.4375 C-12.4375 687.0975 -12.4375 687.7575 -12.4375 688.4375 C-14.36107327 690.0867078 -16.28404145 691.61433219 -18.3125 693.125 C-19.2082373 693.80091187 -19.2082373 693.80091187 -20.12207031 694.49047852 C-25.14572895 698.26225864 -30.2257063 701.92914374 -35.4375 705.4375 C-36.0032373 705.82486328 -36.56897461 706.21222656 -37.15185547 706.61132812 C-87.82469322 741.17598184 -148.88779522 755.71456218 -209.6875 755.625 C-210.93155609 755.62359512 -210.93155609 755.62359512 -212.20074463 755.62216187 C-251.84574621 755.52583709 -291.21209737 749.70825854 -329.5 739.375 C-330.35682373 739.15400635 -331.21364746 738.9330127 -332.09643555 738.70532227 C-336.99197353 737.30853721 -339.79060922 736.04950666 -342.4375 731.4375 C-343.44921875 728.52734375 -343.44921875 728.52734375 -344.125 725.375 C-344.47111328 723.84166016 -344.47111328 723.84166016 -344.82421875 722.27734375 C-356.57973594 648.67432848 -321.39584866 575.08883233 -286.4375 512.4375 C-286.06463867 511.76267578 -285.69177734 511.08785156 -285.30761719 510.39257812 C-276.78614417 494.97593073 -267.3843052 479.97217271 -257.4375 465.4375 C-256.57783969 464.16425509 -255.71848565 462.89080336 -254.859375 461.6171875 C-249.00775066 452.98123926 -242.8868499 444.63470116 -236.4375 436.4375 C-235.2075787 434.85475279 -233.97833547 433.27147826 -232.75 431.6875 C-232.19699219 430.97851562 -231.64398437 430.26953125 -231.07421875 429.5390625 C-229.96903711 428.11999872 -228.86755852 426.69804431 -227.76953125 425.2734375 C-218.60994935 413.40999733 -209.04185234 402.04185234 -198.4375 391.4375 C-191.9334581 384.68330265 -185.48871122 377.88438279 -179.625 370.5625 C-173.79494538 363.28572812 -167.21156545 357.05028539 -160.1484375 350.9921875 C-157.96218354 349.00559144 -156.22689265 346.7822214 -154.4375 344.4375 C-152.77513809 342.76653967 -151.10774191 341.10058373 -149.4375 339.4375 C-147.56038513 337.47923607 -145.71499363 335.49311377 -143.875 333.5 C-143.17213867 332.75073242 -143.17213867 332.75073242 -142.45507812 331.98632812 C-140.12310167 329.45866134 -138.06701435 326.96638091 -136.22265625 324.05859375 C-135.63355469 323.19363281 -135.04445313 322.32867188 -134.4375 321.4375 C-133.7775 321.4375 -133.1175 321.4375 -132.4375 321.4375 C-132.17453125 320.695 -131.9115625 319.9525 -131.640625 319.1875 C-130.42743817 316.41450154 -129.16504203 314.70737433 -127.1875 312.4375 C-69.91186032 242.52600491 -29.69392666 140.18433842 -21.67553711 14.93969727 C-21.85194174 13.44017922 -22.03283462 11.94117902 -22.21923828 10.44287109 C-22.53066046 7.58154915 -22.53305407 4.75070448 -22.5 1.875 C-22.49097656 0.84246094 -22.48195313 -0.19007813 -22.47265625 -1.25390625 C-22.45525391 -2.39666016 -22.45525391 -2.39666016 -22.4375 -3.5625 C-14.49066324 -7.656325 -7.37271664 -3.48327528 0 0 Z M2.5625 23.4375 C3.5625 25.4375 3.5625 25.4375 3.5625 25.4375 Z " fill="#000000" transform="translate(1862.4375,865.5625)"/>
<path d="M0 0 C4.35782758 3.84514198 7.59851656 8.35057255 10.9375 13.0625 C11.50178711 13.85269531 12.06607422 14.64289063 12.64746094 15.45703125 C14.43675154 17.96776224 16.21835163 20.48384234 18 23 C18.55896973 23.78358887 19.11793945 24.56717773 19.69384766 25.37451172 C33.95160793 45.3620651 47.44309101 65.90121616 60 87 C60.75748535 88.26021973 60.75748535 88.26021973 61.53027344 89.54589844 C109.18665141 168.9540213 143.77579089 256.533317 168 412 C168.04130035 412.6595166 168.08260071 413.3190332 168.12515259 413.99853516 C168.85709633 425.92012442 169.20374709 437.80658223 169.1875 449.75 C169.18659363 451.00441895 169.18659363 451.00441895 169.18566895 452.28417969 C169.05543004 519.50016231 156.35336276 585.87750266 128 647 C127.57187012 647.9384375 127.14374023 648.876875 126.70263672 649.84375 C121.15196936 662.00866007 115.08610308 673.65902385 108 685 C107.56042969 685.70608398 107.12085937 686.41216797 106.66796875 687.13964844 C100.22537085 697.43016684 93.35056576 707.33888472 86 717 C85.54093262 717.60473145 85.08186523 718.20946289 84.60888672 718.83251953 C79.18667423 725.94122053 73.58443638 732.76289754 67.484375 739.3046875 C65.51949631 741.43639551 63.61564477 743.59471473 61.72265625 745.7890625 C57.87864341 750.1974864 53.8203493 754.36332044 49.6875 758.5 C48.61532227 759.59054687 48.61532227 759.59054687 47.52148438 760.703125 C46.49571289 761.73179687 46.49571289 761.73179687 45.44921875 762.78125 C44.83393311 763.40064453 44.21864746 764.02003906 43.5847168 764.65820312 C42 766 42 766 40 766 C39.67 766.99 39.34 767.98 39 769 C33.53488372 774 33.53488372 774 31 774 C31 774.66 31 775.32 31 776 C18.12520114 788.38295261 2.15321587 798.63851808 -13 808 C-14.5778125 808.99386719 -14.5778125 808.99386719 -16.1875 810.0078125 C-65.8563095 841.05081844 -121.34591469 860.07724718 -178.79052734 870.41455078 C-181.59473367 870.92607419 -184.38336106 871.48740423 -187.17578125 872.05859375 C-199.43763488 874.31446041 -208.81877559 871.02499985 -220 866 C-221.11938965 865.49807129 -222.2387793 864.99614258 -223.39208984 864.47900391 C-243.74856629 855.21657371 -262.68987135 844.36323632 -281.25 831.875 C-282.70877563 830.89672241 -282.70877563 830.89672241 -284.19702148 829.89868164 C-285.08591064 829.29016357 -285.9747998 828.68164551 -286.890625 828.0546875 C-287.68500977 827.51312012 -288.47939453 826.97155273 -289.29785156 826.41357422 C-289.85956055 825.94709473 -290.42126953 825.48061523 -291 825 C-291 824.34 -291 823.68 -291 823 C-291.72574219 822.7421875 -292.45148438 822.484375 -293.19921875 822.21875 C-296.12047667 820.94757501 -298.30872649 819.45983598 -300.8125 817.5 C-301.60269531 816.8915625 -302.39289063 816.283125 -303.20703125 815.65625 C-303.79871094 815.1096875 -304.39039063 814.563125 -305 814 C-305 813.34 -305 812.68 -305 812 C-305.721875 811.773125 -306.44375 811.54625 -307.1875 811.3125 C-310.58252303 809.72815592 -312.38312463 807.68134911 -315 805 C-316.9698121 803.15479244 -318.94567949 801.3209473 -320.9375 799.5 C-321.43701172 799.03980469 -321.93652344 798.57960938 -322.45117188 798.10546875 C-325.03241556 795.74071647 -327.64586469 793.46960849 -330.37890625 791.28125 C-331.67634766 790.15203125 -331.67634766 790.15203125 -333 789 C-333 788.34 -333 787.68 -333 787 C-333.99 786.67 -334.98 786.34 -336 786 C-338.1875 784.0625 -338.1875 784.0625 -340 782 C-340 781.34 -340 780.68 -340 780 C-340.99 779.67 -341.98 779.34 -343 779 C-344.75390625 777.29296875 -344.75390625 777.29296875 -346.5625 775.1875 C-347.16191406 774.50042969 -347.76132813 773.81335937 -348.37890625 773.10546875 C-350 771 -350 771 -351.02734375 768.80078125 C-351.92686467 766.64414355 -351.92686467 766.64414355 -355 766 C-356.9453125 763.8828125 -356.9453125 763.8828125 -359.125 761.125 C-359.92035156 760.12726562 -360.71570312 759.12953125 -361.53515625 758.1015625 C-362.34855469 757.07804687 -363.16195313 756.05453125 -364 755 C-365.51886029 753.16503173 -367.03964226 751.33165211 -368.5625 749.5 C-372.93452704 744.15472172 -377.00666159 738.63184221 -381 733 C-381.86044922 731.80117187 -381.86044922 731.80117187 -382.73828125 730.578125 C-411.76398343 689.74196469 -433.80724071 642.66107117 -437 592 C-436.67 591.01 -436.34 590.02 -436 589 C-428.05256328 588.54509621 -420.7185515 590.08532132 -412.99325562 591.70645142 C-386.28745139 597.27806934 -359.2339448 601.2337597 -332 603 C-331.17790039 603.05639648 -330.35580078 603.11279297 -329.50878906 603.17089844 C-288.22026136 605.92999736 -246.13645246 603.38208406 -206 593 C-205.15099121 592.78649902 -204.30198242 592.57299805 -203.42724609 592.35302734 C-160.9791962 581.56169664 -121.95098487 560.56212184 -89.99609375 530.65234375 C-88 529 -88 529 -86 529 C-85.67 528.01 -85.34 527.02 -85 526 C-84.34 526 -83.68 526 -83 526 C-82.34 524.68 -81.68 523.36 -81 522 C-80.34 522 -79.68 522 -79 522 C-78.6596875 521.17822266 -78.6596875 521.17822266 -78.3125 520.33984375 C-76.60458672 517.29508168 -74.41135792 515.08689032 -72 512.5625 C-12.97955019 449.45893556 7.03062179 357.45203035 13 274 C13.0494577 273.31042206 13.09891541 272.62084412 13.14987183 271.91036987 C14.18703684 256.80666783 14.20153105 241.69588654 14.1875 226.5625 C14.18656342 225.25410156 14.18562683 223.94570312 14.18466187 222.59765625 C14.15814256 201.65818103 13.76324379 180.86590981 12 160 C11.92458984 159.09364807 11.84917969 158.18729614 11.77148438 157.253479 C7.75930229 109.34702188 1.68881492 61.33742936 -8.19140625 14.25390625 C-8.87187183 10.9163846 -9.22272958 7.79553514 -9.125 4.375 C-9.10695313 3.53710938 -9.08890625 2.69921875 -9.0703125 1.8359375 C-9.03550781 0.92714844 -9.03550781 0.92714844 -9 0 C-5.37580435 -1.20806522 -3.66716248 -1.0268055 0 0 Z " fill="#000000" transform="translate(1968,1046)"/>
<path d="M0 0 C1.28801514 0.00060425 2.57603027 0.0012085 3.90307617 0.00183105 C62.43500116 0.07635465 119.36692966 7.73032726 175.875 23.1875 C177.41365723 23.60684814 177.41365723 23.60684814 178.98339844 24.03466797 C194.57221482 28.32372073 209.73497561 33.52813772 224.875 39.1875 C225.84195801 39.54521484 226.80891602 39.90292969 227.80517578 40.27148438 C237.40899138 43.82589808 246.86854256 47.47931034 256.11328125 51.89453125 C258.63211298 53.07378627 261.1568846 54.12244152 263.75 55.125 C277.27831218 60.44512277 290.08615846 67.31981044 302.875 74.1875 C304.36966797 74.98994141 304.36966797 74.98994141 305.89453125 75.80859375 C308.56212737 77.25507828 311.2190102 78.71980923 313.875 80.1875 C315.30074216 80.96751938 316.72652729 81.7474602 318.15234375 82.52734375 C325.58134864 86.60509897 332.94210013 90.7073347 340.0390625 95.34765625 C342.2482779 96.78090756 344.46840822 98.17903877 346.7109375 99.55859375 C353.68678477 103.85243913 360.51070205 108.21661799 367.0859375 113.11328125 C370.40106931 115.57873642 373.75958813 117.97889084 377.125 120.375 C380.4950793 122.77822971 380.4950793 122.77822971 382.16210938 123.97412109 C383.38333197 124.83921179 384.61504668 125.68957017 385.85351562 126.52978516 C387.5609984 127.70142723 389.22238958 128.9396533 390.875 130.1875 C390.875 130.8475 390.875 131.5075 390.875 132.1875 C391.40996094 132.249375 391.94492188 132.31125 392.49609375 132.375 C395.91874309 133.54398368 398.27240788 135.82861331 400.9375 138.1875 C402.10736449 139.20133886 403.27794769 140.21434895 404.44921875 141.2265625 C405.02978027 141.7309082 405.6103418 142.23525391 406.20849609 142.75488281 C408.51690913 144.73931992 410.88068866 146.65142129 413.25 148.5625 C423.13020418 156.62532356 432.77292726 164.86132332 441.68359375 173.9921875 C443.68055907 175.99271248 445.72745953 177.85163041 447.875 179.6875 C454.4394959 185.31802291 460.5208066 191.39571134 465.875 198.1875 C468.06168695 200.43328659 470.29663152 202.62270825 472.5390625 204.8125 C480.91387002 213.07662725 480.91387002 213.07662725 483.875 217.1875 C483.875 217.8475 483.875 218.5075 483.875 219.1875 C484.865 219.5175 485.855 219.8475 486.875 220.1875 C486.875 220.8475 486.875 221.5075 486.875 222.1875 C487.535 222.1875 488.195 222.1875 488.875 222.1875 C492.875 226.65808824 492.875 226.65808824 492.875 229.1875 C493.535 229.1875 494.195 229.1875 494.875 229.1875 C496.50639937 231.11337579 498.01223225 233.03076717 499.5 235.0625 C499.92023438 235.61808594 500.34046875 236.17367187 500.7734375 236.74609375 C503.875 240.92514712 503.875 240.92514712 503.875 243.1875 C504.535 243.1875 505.195 243.1875 505.875 243.1875 C507.46405012 245.02713111 508.92573187 246.8664745 510.375 248.8125 C510.81642334 249.39644531 511.25784668 249.98039063 511.71264648 250.58203125 C516.55804768 257.02767752 521.24434275 263.58651032 525.875 270.1875 C526.62652344 271.25871094 527.37804688 272.32992188 528.15234375 273.43359375 C533.47270959 281.07285366 538.67945223 288.78575865 543.80175781 296.55908203 C544.73682049 297.97784183 545.67659818 299.39349188 546.6171875 300.80859375 C549.875 305.82415254 549.875 305.82415254 549.875 309.1875 C550.535 309.1875 551.195 309.1875 551.875 309.1875 C556.5052123 315.40889981 559.71278824 322.7307245 563.06640625 329.6953125 C564.39967743 332.26970653 565.75553665 334.62079301 567.31640625 337.046875 C570.0230182 341.30165469 572.14926755 345.7348968 574.25 350.3125 C575.03260123 351.99277164 575.81646636 353.67245515 576.6015625 355.3515625 C576.98473633 356.17172852 577.36791016 356.99189453 577.76269531 357.83691406 C579.32991112 361.14884422 580.97195582 364.4175043 582.625 367.6875 C589.15888218 380.66493419 594.85364765 393.92106392 599.56640625 407.66796875 C600.5197268 410.23197418 601.52205698 412.62971746 602.66796875 415.1015625 C605.78084071 422.01477171 608.17032434 429.20865402 610.625 436.375 C610.88889526 437.14482208 611.15279053 437.91464417 611.42468262 438.70779419 C616.6494491 454.02306346 621.1024871 469.44468835 624.875 485.1875 C625.04279968 485.88617187 625.21059937 486.58484375 625.38348389 487.3046875 C635.83435304 530.99877361 642.96332419 575.81222207 643.078125 620.828125 C643.08095238 621.59812584 643.08377975 622.36812668 643.08669281 623.16146088 C643.10156682 627.25429098 643.11086468 631.34708704 643.11523438 635.43994141 C643.11957176 638.73595538 643.13329446 642.03170058 643.15625 645.32763672 C643.59643416 709.87218181 633.27557104 772.82883925 614.75 834.625 C614.54403198 835.31774017 614.33806396 836.01048035 614.12585449 836.72421265 C611.80185094 844.51138831 609.22600701 852.07323042 606 859.54467773 C604.46924666 863.14068575 603.19128787 866.80045575 601.9375 870.5 C599.17238339 878.50385207 596.09008072 886.35501612 592.875 894.1875 C592.215 894.1875 591.555 894.1875 590.875 894.1875 C590.77703125 894.73277344 590.6790625 895.27804687 590.578125 895.83984375 C588.95109617 904.04511845 585.52328943 911.0716886 581.70703125 918.4609375 C580.74721046 920.35925326 580.74721046 920.35925326 579.875 923.1875 C579.215 923.1875 578.555 923.1875 577.875 923.1875 C577.7925 923.826875 577.71 924.46625 577.625 925.125 C576.57979628 929.39291517 574.73408174 933.21857667 572.875 937.1875 C572.215 937.1875 571.555 937.1875 570.875 937.1875 C570.75125 938.20457031 570.75125 938.20457031 570.625 939.2421875 C569.67050641 942.99056337 567.85111132 946.03049693 565.875 949.3125 C563.0113134 954.07160997 563.0113134 954.07160997 560.875 959.1875 C560.215 959.1875 559.555 959.1875 558.875 959.1875 C558.78476563 959.71214844 558.69453125 960.23679687 558.6015625 960.77734375 C557.61856002 964.03816381 555.95968407 966.82842824 554.25 969.75 C553.8880957 970.37422852 553.52619141 970.99845703 553.15332031 971.64160156 C549.87656753 977.25602021 546.44448918 982.7541735 542.875 988.1875 C542.45234863 988.83170898 542.02969727 989.47591797 541.59423828 990.13964844 C522.79173176 1018.7393538 522.79173176 1018.7393538 512.30078125 1031.40234375 C510.81271101 1033.13812321 510.81271101 1033.13812321 509.875 1035.1875 C509.215 1035.1875 508.555 1035.1875 507.875 1035.1875 C507.875 1036.1775 507.875 1037.1675 507.875 1038.1875 C507.215 1038.1875 506.555 1038.1875 505.875 1038.1875 C505.66875 1038.868125 505.4625 1039.54875 505.25 1040.25 C503.44604973 1044.10389375 500.9739655 1047.26537764 497.875 1050.1875 C497.215 1050.1875 496.555 1050.1875 495.875 1050.1875 C495.215 1051.8375 494.555 1053.4875 493.875 1055.1875 C493.215 1055.1875 492.555 1055.1875 491.875 1055.1875 C491.46531982 1056.07260254 491.46531982 1056.07260254 491.04736328 1056.97558594 C489.90877378 1059.12377854 488.70646372 1060.74772818 487.1171875 1062.578125 C486.57779541 1063.20138672 486.03840332 1063.82464844 485.48266602 1064.46679688 C484.91088623 1065.11712891 484.33910645 1065.76746094 483.75 1066.4375 C483.16468506 1067.10845703 482.57937012 1067.77941406 481.97631836 1068.47070312 C478.32433855 1072.62711674 474.57450179 1076.62730377 470.58984375 1080.46875 C468.77244184 1082.29029178 467.1398176 1084.20556219 465.5 1086.1875 C464.200625 1087.6725 464.200625 1087.6725 462.875 1089.1875 C462.215 1089.1875 461.555 1089.1875 460.875 1089.1875 C460.60405518 1089.7844165 460.33311035 1090.38133301 460.05395508 1090.99633789 C458.89063082 1093.15844914 457.75573546 1094.53843986 456.01171875 1096.24609375 C455.45419922 1096.79716797 454.89667969 1097.34824219 454.32226562 1097.91601562 C453.74154297 1098.47998047 453.16082031 1099.04394531 452.5625 1099.625 C451.99337891 1100.18509766 451.42425781 1100.74519531 450.83789062 1101.32226562 C449.71015197 1102.4318776 448.579966 1103.53900814 447.44726562 1104.64355469 C446.07706411 1105.98907556 444.72979671 1107.35787259 443.38671875 1108.73046875 C440.38260597 1111.66917316 437.2153731 1114.35980412 434 1117.0625 C428.50505755 1121.70936838 428.50505755 1121.70936838 423.375 1126.75 C419.70880695 1130.55471419 415.51904044 1133.69810185 411.34863281 1136.92114258 C407.35887551 1140.00639296 403.47229464 1143.175987 399.625 1146.4375 C395.34240218 1150.03851727 390.96326107 1153.31434751 386.33203125 1156.44921875 C382.72811082 1158.99889219 379.37295889 1161.83368887 376.00390625 1164.68359375 C373.875 1166.1875 373.875 1166.1875 370.875 1166.1875 C370.875 1166.8475 370.875 1167.5075 370.875 1168.1875 C369.29296875 1169.44921875 369.29296875 1169.44921875 367.0625 1170.875 C366.22847656 1171.41253906 365.39445312 1171.95007812 364.53515625 1172.50390625 C363.65730469 1173.05949219 362.77945313 1173.61507813 361.875 1174.1875 C361.08996094 1174.69152344 360.30492188 1175.19554687 359.49609375 1175.71484375 C357.73640242 1176.84115635 355.97302517 1177.96172045 354.20703125 1179.078125 C351.63646248 1180.70544872 349.07262357 1182.34196598 346.51171875 1183.984375 C336.4742563 1190.40063619 326.31909583 1196.4593243 315.875 1202.1875 C314.39547004 1203.02018815 312.91624072 1203.85341107 311.4375 1204.6875 C309.91900805 1205.52509218 308.39779493 1206.35775662 306.875 1207.1875 C305.13669922 1208.13496094 305.13669922 1208.13496094 303.36328125 1209.1015625 C279.97603689 1221.72148283 255.24660478 1234.24131444 229.81542969 1242.19506836 C226.9221641 1243.17158153 224.16730699 1244.30741061 221.3671875 1245.5234375 C214.83418158 1248.27114146 208.19327379 1250.49422772 201.4375 1252.625 C200.20233643 1253.01623047 198.96717285 1253.40746094 197.69458008 1253.81054688 C194.09083432 1254.94534938 190.4837049 1256.06858239 186.875 1257.1875 C185.98200195 1257.4673877 185.08900391 1257.74727539 184.16894531 1258.03564453 C127.01891053 1275.80099556 66.25462234 1283.63849212 6.54907227 1283.44824219 C2.57487648 1283.43753335 -1.39886469 1283.44821307 -5.37304688 1283.4609375 C-29.18325765 1283.47439829 -52.97501716 1282.37520087 -76.625 1279.5 C-77.29970337 1279.41924225 -77.97440674 1279.3384845 -78.66955566 1279.25527954 C-124.19775724 1273.74703703 -168.24466812 1262.70694723 -211.625 1248 C-212.51353668 1247.7000412 -213.40207336 1247.4000824 -214.3175354 1247.09103394 C-223.81467282 1243.87567559 -233.08239622 1240.55222001 -242.125 1236.1875 C-244.14008575 1235.31986098 -246.15965973 1234.46239591 -248.1875 1233.625 C-249.18523437 1233.2125 -250.18296875 1232.8 -251.2109375 1232.375 C-253.905828 1231.27681406 -256.60714441 1230.19709138 -259.3125 1229.125 C-263.97547778 1227.27341239 -268.55726433 1225.26173745 -273.125 1223.1875 C-273.125 1222.5275 -273.125 1221.8675 -273.125 1221.1875 C-273.78242187 1221.09855469 -274.43984375 1221.00960938 -275.1171875 1220.91796875 C-279.10071227 1219.95054131 -282.5675273 1218.27481368 -286.25 1216.5 C-287.00482666 1216.13986816 -287.75965332 1215.77973633 -288.53735352 1215.40869141 C-297.31346415 1211.18693903 -305.74907348 1206.50929871 -314.03125 1201.38671875 C-316.20083419 1200.05272163 -316.20083419 1200.05272163 -319.125 1199.1875 C-319.125 1198.5275 -319.125 1197.8675 -319.125 1197.1875 C-319.99330444 1197.00743408 -319.99330444 1197.00743408 -320.87915039 1196.82373047 C-323.22609755 1196.15885991 -324.96947413 1195.25796618 -327.05859375 1194.0078125 C-327.79013672 1193.57339844 -328.52167969 1193.13898438 -329.27539062 1192.69140625 C-330.03013672 1192.23636719 -330.78488281 1191.78132813 -331.5625 1191.3125 C-332.68881836 1190.64154297 -332.68881836 1190.64154297 -333.83789062 1189.95703125 C-335.28884152 1189.09182043 -336.73736545 1188.22252301 -338.18310547 1187.34863281 C-339.82483633 1186.36697931 -341.49017418 1185.42497028 -343.16015625 1184.4921875 C-343.80855469 1184.06164063 -344.45695312 1183.63109375 -345.125 1183.1875 C-345.125 1182.5275 -345.125 1181.8675 -345.125 1181.1875 C-345.7025 1181.06375 -346.28 1180.94 -346.875 1180.8125 C-349.14835767 1180.18101176 -351.0503529 1179.29891809 -353.125 1178.1875 C-353.125 1177.5275 -353.125 1176.8675 -353.125 1176.1875 C-353.66125 1176.105 -354.1975 1176.0225 -354.75 1175.9375 C-357.99840691 1174.91168729 -360.41251859 1173.22186106 -363.125 1171.1875 C-363.125 1170.5275 -363.125 1169.8675 -363.125 1169.1875 C-363.66125 1169.105 -364.1975 1169.0225 -364.75 1168.9375 C-367.99840691 1167.91168729 -370.41251859 1166.22186106 -373.125 1164.1875 C-373.125 1163.5275 -373.125 1162.8675 -373.125 1162.1875 C-373.68960937 1162.0946875 -374.25421875 1162.001875 -374.8359375 1161.90625 C-377.691018 1161.00977421 -379.43682643 1159.57517341 -381.75 1157.6875 C-384.77863484 1155.19018157 -384.77863484 1155.19018157 -388.125 1153.1875 C-388.125 1152.5275 -388.125 1151.8675 -388.125 1151.1875 C-388.8159375 1150.96964844 -389.506875 1150.75179688 -390.21875 1150.52734375 C-393.88826511 1148.83561837 -396.63867586 1146.41217831 -399.625 1143.75 C-400.86934665 1142.66094965 -402.11414879 1141.57241955 -403.359375 1140.484375 C-404.30006836 1139.65776367 -404.30006836 1139.65776367 -405.25976562 1138.81445312 C-408.0992353 1136.33772198 -410.98802978 1133.9209819 -413.875 1131.5 C-418.62205991 1127.5009357 -423.27212278 1123.40760971 -427.86328125 1119.23046875 C-429.92371641 1117.36931575 -432.01614318 1115.55578758 -434.125 1113.75 C-438.2242537 1110.19012178 -441.99756267 1106.3321464 -445.80859375 1102.46875 C-447.59310412 1100.71132326 -449.35195644 1099.11002239 -451.3125 1097.5625 C-454.25812761 1095.07508113 -456.5925249 1092.40962302 -459.08203125 1089.48046875 C-461.44773815 1086.82526808 -463.95726923 1084.36098921 -466.5 1081.875 C-471.03914978 1077.39196608 -475.11035463 1072.71946273 -479.0546875 1067.6953125 C-481.14654797 1065.07070279 -481.14654797 1065.07070279 -483.8828125 1062.4921875 C-486.125 1060.1875 -486.125 1060.1875 -486.125 1058.1875 C-486.785 1058.1875 -487.445 1058.1875 -488.125 1058.1875 C-489.78802303 1056.2442268 -491.3379695 1054.29016804 -492.875 1052.25 C-496.16123801 1047.9576218 -499.48771938 1043.71834507 -502.96484375 1039.578125 C-503.60389648 1038.8162085 -504.24294922 1038.05429199 -504.90136719 1037.26928711 C-506.16346018 1035.7706726 -507.43095064 1034.27658516 -508.70410156 1032.78735352 C-509.27999023 1032.10084717 -509.85587891 1031.41434082 -510.44921875 1030.70703125 C-511.2239856 1029.79594604 -511.2239856 1029.79594604 -512.0144043 1028.86645508 C-513.125 1027.1875 -513.125 1027.1875 -513.125 1024.1875 C-513.785 1024.1875 -514.445 1024.1875 -515.125 1024.1875 C-516.8515625 1022.0703125 -516.8515625 1022.0703125 -518.75 1019.3125 C-519.69746094 1017.95511719 -519.69746094 1017.95511719 -520.6640625 1016.5703125 C-522.125 1014.1875 -522.125 1014.1875 -522.125 1012.1875 C-522.785 1012.1875 -523.445 1012.1875 -524.125 1012.1875 C-524.8675 1010.7953125 -524.8675 1010.7953125 -525.625 1009.375 C-528.18660486 1004.83650444 -531.35295464 1000.77287313 -534.515625 996.640625 C-536.125 994.1875 -536.125 994.1875 -536.125 991.1875 C-536.785 991.1875 -537.445 991.1875 -538.125 991.1875 C-539.29492188 989.62133789 -539.29492188 989.62133789 -540.59375 987.41015625 C-541.07811523 986.59409912 -541.56248047 985.77804199 -542.06152344 984.93725586 C-542.83544434 983.60706421 -542.83544434 983.60706421 -543.625 982.25 C-544.15383789 981.35224854 -544.68267578 980.45449707 -545.22753906 979.52954102 C-546.32305644 977.6687677 -547.41579426 975.80635537 -548.50585938 973.94238281 C-550.03316682 971.34374934 -551.58179345 968.7595021 -553.140625 966.1796875 C-554.05219113 964.66152305 -554.96365481 963.14329709 -555.875 961.625 C-556.30490234 960.91802979 -556.73480469 960.21105957 -557.17773438 959.48266602 C-560.125 954.52772792 -560.125 954.52772792 -560.125 951.1875 C-560.785 951.1875 -561.445 951.1875 -562.125 951.1875 C-568.08203125 939.2734375 -568.08203125 939.2734375 -569.12744141 937.17089844 C-570.02495164 935.3864214 -570.9539335 933.61785653 -571.88671875 931.8515625 C-573.125 929.1875 -573.125 929.1875 -573.125 926.1875 C-573.785 926.1875 -574.445 926.1875 -575.125 926.1875 C-576.38164978 923.28149739 -577.125 921.39145416 -577.125 918.1875 C-577.785 918.1875 -578.445 918.1875 -579.125 918.1875 C-579.785 915.2175 -580.445 912.2475 -581.125 909.1875 C-581.785 909.1875 -582.445 909.1875 -583.125 909.1875 C-584.07426655 906.81433362 -585.02297832 904.44096872 -585.96875 902.06640625 C-586.72878816 900.17401393 -587.49933704 898.28580302 -588.28125 896.40234375 C-588.82265625 895.08943359 -588.82265625 895.08943359 -589.375 893.75 C-589.87773438 892.54537109 -589.87773438 892.54537109 -590.390625 891.31640625 C-591.125 889.1875 -591.125 889.1875 -591.125 886.1875 C-591.785 886.1875 -592.445 886.1875 -593.125 886.1875 C-593.50011719 885.09953125 -593.87523437 884.0115625 -594.26171875 882.890625 C-594.77845473 881.40618346 -595.2953929 879.9218123 -595.8125 878.4375 C-596.05677734 877.72722656 -596.30105469 877.01695312 -596.55273438 876.28515625 C-598.05084079 871.99943411 -599.69372619 867.81916243 -601.48828125 863.6484375 C-604.66578932 856.10237953 -607.14026458 848.35697667 -609.625 840.5625 C-609.86655823 839.80949615 -610.10811646 839.05649231 -610.35699463 838.28067017 C-613.8726204 827.31773299 -617.30840916 816.35411459 -620.125 805.1875 C-620.41334717 804.06649902 -620.41334717 804.06649902 -620.70751953 802.92285156 C-629.20945977 769.6377896 -634.62299381 735.55645276 -637.875 701.375 C-638.04841919 699.5652771 -638.04841919 699.5652771 -638.2253418 697.71899414 C-639.85989122 679.34924013 -640.33600261 660.93529038 -640.3125 642.5 C-640.31156342 641.53161194 -640.31062683 640.56322388 -640.30966187 639.56549072 C-640.20239424 587.78006414 -634.24350353 536.74273352 -621.91552734 486.42236328 C-621.25791163 483.73137867 -620.61914885 481.03716616 -619.98828125 478.33984375 C-616.04932814 462.01186205 -610.25085476 446.14611326 -604.83312988 430.2644043 C-604.17841374 428.34415945 -603.52611116 426.42309214 -602.87402344 424.50195312 C-596.16161248 404.75275435 -596.16161248 404.75275435 -592.03515625 395.296875 C-591.03727853 393.06682334 -591.03727853 393.06682334 -590.125 390.1875 C-589.465 390.1875 -588.805 390.1875 -588.125 390.1875 C-587.97804688 389.3521875 -587.97804688 389.3521875 -587.828125 388.5 C-587.67859375 387.736875 -587.5290625 386.97375 -587.375 386.1875 C-587.23578125 385.445 -587.0965625 384.7025 -586.953125 383.9375 C-586.03428973 380.88627344 -584.72902921 378.27726834 -583.27050781 375.453125 C-581.15466958 371.2683469 -579.28545294 366.96890594 -577.375 362.6875 C-576.96378906 361.7696875 -576.55257813 360.851875 -576.12890625 359.90625 C-575.12606547 357.66734966 -574.12479649 355.42776102 -573.125 353.1875 C-572.465 353.1875 -571.805 353.1875 -571.125 353.1875 C-571.0425 352.52363281 -570.96 351.85976562 -570.875 351.17578125 C-569.87990847 347.21096344 -568.07662899 343.94803241 -566.125 340.375 C-565.72273193 339.62871338 -565.32046387 338.88242676 -564.90600586 338.11352539 C-563.65410895 335.80013692 -562.39111807 333.49313119 -561.125 331.1875 C-560.55869873 330.15012695 -560.55869873 330.15012695 -559.98095703 329.09179688 C-554.39589818 318.88675358 -548.37731563 308.99557229 -542.125 299.1875 C-541.43792969 298.10726563 -540.75085937 297.02703125 -540.04296875 295.9140625 C-538.89701027 294.11430455 -537.74899777 292.31585033 -536.59765625 290.51953125 C-535.53599957 288.83834017 -534.52914786 287.12209855 -533.55859375 285.38671875 C-533.08550781 284.66097656 -532.61242188 283.93523437 -532.125 283.1875 C-531.465 283.1875 -530.805 283.1875 -530.125 283.1875 C-530.02058594 282.62546875 -529.91617187 282.0634375 -529.80859375 281.484375 C-528.99886765 278.76369529 -527.76296662 276.79492193 -526.1875 274.4375 C-525.66285156 273.63828125 -525.13820313 272.8390625 -524.59765625 272.015625 C-524.11167969 271.41234375 -523.62570312 270.8090625 -523.125 270.1875 C-522.465 270.1875 -521.805 270.1875 -521.125 270.1875 C-521.00584229 269.59074463 -520.88668457 268.99398926 -520.76391602 268.37915039 C-519.74797777 264.89421436 -517.32914477 262.38786127 -515.0625 259.625 C-514.04777931 258.36464793 -513.03477048 257.10291581 -512.0234375 255.83984375 C-511.27658691 254.90760986 -511.27658691 254.90760986 -510.51464844 253.95654297 C-508.65607512 251.5905517 -506.91975492 249.14700962 -505.1875 246.6875 C-501.13689471 241.04321394 -496.63385497 235.84891723 -492.078125 230.61328125 C-489.45507861 227.59272687 -486.93678301 224.49910377 -484.4375 221.375 C-481.01608627 217.15546263 -477.38659787 213.30347191 -473.4609375 209.55078125 C-471.62026241 207.6885598 -469.94519902 205.8193094 -468.25390625 203.828125 C-463.01782309 197.79302004 -457.3021244 192.21580018 -451.64624023 186.57836914 C-449.69204376 184.6295313 -447.74324853 182.67540728 -445.79492188 180.72070312 C-439.73938445 174.66192731 -433.66590483 168.72625796 -427.125 163.1875 C-425.34929779 161.56782183 -423.57791693 159.94338282 -421.8125 158.3125 C-417.38489668 154.27913533 -412.85734735 150.42291111 -408.1953125 146.6640625 C-405.90685532 144.81815683 -403.63288199 142.95938292 -401.3671875 141.0859375 C-393.88493637 134.91786495 -386.30449788 129.01289187 -378.359375 123.453125 C-375.39890634 121.37936676 -372.47608554 119.26387494 -369.5625 117.125 C-365.5285202 114.18740467 -361.46736911 111.29292835 -357.375 108.4375 C-356.34890625 107.72078125 -355.3228125 107.0040625 -354.265625 106.265625 C-351.53894726 104.4614054 -348.7697919 102.82533547 -345.91894531 101.22753906 C-342.17860608 99.05907892 -338.60914162 96.60456999 -335.0234375 94.19140625 C-330.45270972 91.1875 -330.45270972 91.1875 -327.125 91.1875 C-327.125 90.5275 -327.125 89.8675 -327.125 89.1875 C-326.61453125 88.90777344 -326.1040625 88.62804687 -325.578125 88.33984375 C-321.03251332 85.83330965 -316.5341819 83.26141728 -312.0625 80.625 C-299.33105895 73.1875 -299.33105895 73.1875 -295.125 73.1875 C-295.125 72.5275 -295.125 71.8675 -295.125 71.1875 C-293.35744474 70.34723604 -291.58582737 69.51551278 -289.8125 68.6875 C-288.82636719 68.2234375 -287.84023437 67.759375 -286.82421875 67.28125 C-284.125 66.1875 -284.125 66.1875 -281.125 66.1875 C-281.125 65.5275 -281.125 64.8675 -281.125 64.1875 C-279.14067944 63.30164261 -277.15557329 62.41752683 -275.16796875 61.5390625 C-272.83253893 60.50175991 -270.50329597 59.45322258 -268.17578125 58.3984375 C-266.76312742 57.76538711 -265.35036639 57.13257586 -263.9375 56.5 C-262.92236328 56.03581665 -262.92236328 56.03581665 -261.88671875 55.56225586 C-257.96586642 53.81757267 -254.43260311 52.68994204 -250.125 52.1875 C-250.125 51.5275 -250.125 50.8675 -250.125 50.1875 C-249.21878906 49.87296875 -248.31257813 49.5584375 -247.37890625 49.234375 C-246.16074219 48.80640625 -244.94257812 48.3784375 -243.6875 47.9375 C-241.89505859 47.31101562 -241.89505859 47.31101562 -240.06640625 46.671875 C-237.3162051 45.67295037 -234.66780292 44.54353078 -232.01025391 43.3203125 C-227.10151704 41.12645314 -222.10302919 39.32141071 -217.01953125 37.578125 C-216.07044388 37.25011398 -215.12135651 36.92210297 -214.14350891 36.58415222 C-211.07712571 35.52844299 -208.00792605 34.48138992 -204.9375 33.4375 C-203.35808624 32.90009689 -203.35808624 32.90009689 -201.74676514 32.35183716 C-184.69000557 26.56794405 -167.67872226 21.27115349 -150.125 17.1875 C-148.23177002 16.74253174 -148.23177002 16.74253174 -146.30029297 16.28857422 C-113.36213823 8.61751288 -79.85723303 3.58532814 -46.125 1.1875 C-44.18125488 1.04501831 -44.18125488 1.04501831 -42.19824219 0.8996582 C-28.14586918 -0.04927202 -14.07848765 -0.01218409 0 0 Z M-157.25030518 54.6809082 C-158.97009111 55.14563955 -160.69174658 55.60343807 -162.41357422 56.06054688 C-175.94852745 59.678123 -189.1597354 64.18320218 -202.375 68.8125 C-203.16945526 69.09049438 -203.96391052 69.36848877 -204.78244019 69.65490723 C-216.06401853 73.61604479 -227.13281129 77.86885286 -238 82.875 C-241.65315244 84.55619027 -245.26220452 86.03910134 -249.125 87.1875 C-249.125 87.8475 -249.125 88.5075 -249.125 89.1875 C-249.77210938 89.27 -250.41921875 89.3525 -251.0859375 89.4375 C-255.25867662 90.46727624 -258.89883192 92.30791967 -262.75 94.1875 C-264.26232198 94.91811501 -265.77531663 95.6473397 -267.2890625 96.375 C-268.28607178 96.86033203 -268.28607178 96.86033203 -269.30322266 97.35546875 C-271.125 98.1875 -271.125 98.1875 -274.125 99.1875 C-274.125 99.8475 -274.125 100.5075 -274.125 101.1875 C-274.81335937 101.27644531 -275.50171875 101.36539063 -276.2109375 101.45703125 C-279.77315853 102.34997406 -282.63264519 104.00432874 -285.75 105.875 C-287.0007296 106.60904923 -288.25203799 107.34211311 -289.50390625 108.07421875 C-290.1189502 108.43563965 -290.73399414 108.79706055 -291.36767578 109.16943359 C-293.77771735 110.56563717 -296.22977558 111.87743544 -298.6875 113.1875 C-304.06188098 116.08631173 -309.21308362 119.29356238 -314.375 122.55078125 C-317.125 124.1875 -317.125 124.1875 -320.125 125.1875 C-320.125 125.8475 -320.125 126.5075 -320.125 127.1875 C-320.81722656 127.435 -321.50945312 127.6825 -322.22265625 127.9375 C-325.56282344 129.3760646 -328.52965194 131.20408921 -331.5625 133.1875 C-332.16868164 133.58050293 -332.77486328 133.97350586 -333.39941406 134.37841797 C-339.0121285 138.0502737 -344.46841585 141.92809648 -349.8984375 145.86328125 C-352.57188469 147.78906948 -355.27244326 149.65274167 -358 151.5 C-363.32878915 155.1993247 -368.27832279 159.34800816 -373.27685547 163.47509766 C-377.5845172 167.00929846 -381.93805625 170.25581561 -386.71875 173.13671875 C-387.1828125 173.48347656 -387.646875 173.83023438 -388.125 174.1875 C-388.125 174.8475 -388.125 175.5075 -388.125 176.1875 C-388.785 176.1875 -389.445 176.1875 -390.125 176.1875 C-390.125 176.8475 -390.125 177.5075 -390.125 178.1875 C-390.66640625 178.41050781 -391.2078125 178.63351562 -391.765625 178.86328125 C-394.87476467 180.60831163 -397.30347218 182.94068567 -399.875 185.375 C-400.9434 186.37044722 -402.01241142 187.36523861 -403.08203125 188.359375 C-403.60104004 188.84341797 -404.12004883 189.32746094 -404.65478516 189.82617188 C-408.67690837 193.55040951 -412.78364938 197.15354223 -417.125 200.5 C-417.785 201.056875 -418.445 201.61375 -419.125 202.1875 C-419.125 202.8475 -419.125 203.5075 -419.125 204.1875 C-419.785 204.1875 -420.445 204.1875 -421.125 204.1875 C-422.85220473 205.81600732 -424.48720306 207.47252939 -426.125 209.1875 C-427.30984044 210.37765362 -428.49744899 211.5650565 -429.6875 212.75 C-430.27789063 213.34296875 -430.86828125 213.9359375 -431.4765625 214.546875 C-432.81976826 215.88371485 -434.18768552 217.19568882 -435.5625 218.5 C-437.35146934 220.04878753 -437.35146934 220.04878753 -437.125 222.1875 C-437.723125 222.45046875 -438.32125 222.7134375 -438.9375 222.984375 C-441.25198468 224.25734157 -442.44126502 225.4205258 -444.125 227.4375 C-444.72828125 228.15035156 -445.3315625 228.86320313 -445.953125 229.59765625 C-446.66984375 230.45230469 -447.3865625 231.30695313 -448.125 232.1875 C-449.52768613 233.82518295 -450.93496108 235.45886471 -452.34204102 237.09277344 C-454.4295378 239.5197087 -456.50860613 241.95379534 -458.58740234 244.38818359 C-459.57879386 245.5483226 -460.57122904 246.70757095 -461.56494141 247.86572266 C-472.95524635 261.1417603 -483.48269562 274.91132879 -493.65185547 289.14306641 C-494.98120281 290.98793791 -496.32873248 292.81639432 -497.69140625 294.63671875 C-498.41199219 295.60222656 -499.13257813 296.56773437 -499.875 297.5625 C-500.48859375 298.37460938 -501.1021875 299.18671875 -501.734375 300.0234375 C-503.08682954 302.12809991 -503.70035289 303.74019164 -504.125 306.1875 C-504.785 306.1875 -505.445 306.1875 -506.125 306.1875 C-506.66125 307.156875 -507.1975 308.12625 -507.75 309.125 C-509.90553255 312.90677062 -512.30417544 316.49757635 -514.73046875 320.109375 C-518.09688729 324.75841094 -518.09688729 324.75841094 -519.125 330.1875 C-519.785 330.1875 -520.445 330.1875 -521.125 330.1875 C-521.57230469 331.1053125 -522.01960938 332.023125 -522.48046875 332.96875 C-523.09092355 334.20844282 -523.70161339 335.44801991 -524.3125 336.6875 C-524.60447266 337.28820313 -524.89644531 337.88890625 -525.19726562 338.5078125 C-527.19218386 342.54055044 -529.43234303 346.3212962 -531.84643555 350.11572266 C-534.05298616 353.6912026 -535.99302514 357.40229784 -537.9375 361.125 C-538.36401855 361.9396875 -538.79053711 362.754375 -539.22998047 363.59375 C-542.16629332 369.24579734 -545.00924149 374.9380893 -547.75 380.6875 C-548.09264893 381.39898193 -548.43529785 382.11046387 -548.78833008 382.84350586 C-550.17627872 385.80251269 -551.125 387.87824096 -551.125 391.1875 C-551.785 391.1875 -552.445 391.1875 -553.125 391.1875 C-553.35574219 391.84234375 -553.58648438 392.4971875 -553.82421875 393.171875 C-556.59941047 400.93802416 -559.57635967 408.62062783 -563.01078796 416.12228394 C-565.50539957 421.59392843 -567.61086982 427.12299029 -569.55078125 432.8125 C-569.85933044 433.7088063 -570.16787964 434.60511261 -570.48577881 435.52857971 C-571.47561804 438.41290021 -572.45770564 441.29975276 -573.4375 444.1875 C-573.94130692 445.66946365 -573.94130692 445.66946365 -574.45529175 447.18136597 C-582.50181721 470.90102324 -589.0817055 494.6375265 -594.125 519.1875 C-594.34397949 520.25097656 -594.56295898 521.31445312 -594.78857422 522.41015625 C-597.62479444 536.40876024 -599.84524073 550.48222044 -601.8125 564.625 C-601.96659836 565.70500275 -601.96659836 565.70500275 -602.12380981 566.80682373 C-605.61100762 591.45419553 -606.51091849 616.19542251 -606.4375 641.0625 C-606.43527325 642.40229281 -606.43309696 643.7420857 -606.43096924 645.08187866 C-606.32267745 694.42176809 -601.14187252 744.03835838 -587.81835938 791.68652344 C-587.07379629 794.37219394 -586.35654468 797.06437175 -585.640625 799.7578125 C-578.02117922 828.08050703 -569.09213609 856.9155057 -556.421875 883.4140625 C-555.21415438 885.99683852 -554.14873436 888.58996891 -553.125 891.25 C-551.28987755 895.93557903 -549.10258047 900.38651522 -546.81640625 904.8671875 C-545.61820859 907.21930762 -544.43835999 909.57508007 -543.27734375 911.9453125 C-538.87759104 920.90432557 -534.17227258 929.63865874 -529.20556641 938.29541016 C-528.19235702 940.06955673 -527.19519915 941.8528431 -526.19921875 943.63671875 C-512.69536687 967.70880254 -497.02656702 990.59676375 -480.31542969 1012.54321289 C-479.125 1014.1875 -479.125 1014.1875 -478.125 1016.1875 C-477.465 1016.1875 -476.805 1016.1875 -476.125 1016.1875 C-475.88910156 1016.90679688 -475.65320312 1017.62609375 -475.41015625 1018.3671875 C-473.90851014 1021.66259326 -472.05946903 1023.69439475 -469.5625 1026.3125 C-466.15926997 1029.93659947 -462.91546319 1033.60980355 -459.8125 1037.5 C-455.67418364 1042.63416789 -451.25584779 1047.45162627 -446.72924805 1052.24145508 C-444.16546938 1054.95968299 -441.69515564 1057.6874529 -439.359375 1060.60546875 C-438.25335937 1061.88357422 -438.25335937 1061.88357422 -437.125 1063.1875 C-436.465 1063.1875 -435.805 1063.1875 -435.125 1063.1875 C-434.81949219 1063.98220703 -434.81949219 1063.98220703 -434.5078125 1064.79296875 C-432.5242445 1068.2277913 -429.82350618 1070.74013109 -427 1073.5 C-426.11985229 1074.37047974 -426.11985229 1074.37047974 -425.22192383 1075.25854492 C-421.57347745 1078.84267493 -417.83911732 1082.2815974 -413.9375 1085.58984375 C-411.9632506 1087.33007652 -410.14531786 1089.17425418 -408.3125 1091.0625 C-404.41896869 1095.01710631 -400.21129422 1098.46719126 -395.8828125 1101.93359375 C-392.43761682 1104.74928484 -389.16360062 1107.728545 -385.90234375 1110.75390625 C-384.24612189 1112.39677311 -384.24612189 1112.39677311 -382.125 1112.1875 C-382.125 1112.8475 -382.125 1113.5075 -382.125 1114.1875 C-380.08969005 1115.89348176 -380.08969005 1115.89348176 -377.4375 1117.6875 C-373.06586198 1120.78360867 -368.78841729 1123.95829885 -364.5625 1127.25 C-359.20052887 1131.40687366 -353.73055682 1135.3659902 -348.125 1139.1875 C-347.50496094 1139.62191406 -346.88492187 1140.05632812 -346.24609375 1140.50390625 C-343.44794885 1142.58020051 -343.44794885 1142.58020051 -340.125 1143.1875 C-340.125 1143.8475 -340.125 1144.5075 -340.125 1145.1875 C-338.61873047 1146.03054688 -338.61873047 1146.03054688 -337.08203125 1146.890625 C-332.57386585 1149.46542206 -328.25920041 1152.31315571 -323.93554688 1155.18359375 C-320.79406072 1157.44045369 -320.79406072 1157.44045369 -317.125 1158.1875 C-317.125 1158.8475 -317.125 1159.5075 -317.125 1160.1875 C-316.45855469 1160.55101562 -315.79210938 1160.91453125 -315.10546875 1161.2890625 C-313.72294922 1162.04316406 -313.72294922 1162.04316406 -312.3125 1162.8125 C-311.31734375 1163.35390625 -310.3221875 1163.8953125 -309.296875 1164.453125 C-307.19831147 1165.6006154 -305.10445009 1166.75675146 -303.015625 1167.921875 C-302.04109375 1168.46328125 -301.0665625 1169.0046875 -300.0625 1169.5625 C-299.16402344 1170.06523438 -298.26554687 1170.56796875 -297.33984375 1171.0859375 C-295.2388184 1172.33593921 -295.2388184 1172.33593921 -293.125 1172.1875 C-293.125 1172.8475 -293.125 1173.5075 -293.125 1174.1875 C-292.13242188 1174.68378906 -291.13984375 1175.18007812 -290.1171875 1175.69140625 C-289.46645264 1176.01689453 -288.81571777 1176.34238281 -288.14526367 1176.67773438 C-286.70571193 1177.3972645 -285.26576507 1178.11600461 -283.82543945 1178.83398438 C-280.22434505 1180.63037327 -276.62946087 1182.43665423 -273.05078125 1184.27734375 C-272.10452881 1184.76062134 -272.10452881 1184.76062134 -271.13916016 1185.25366211 C-269.39678301 1186.14441226 -267.65729873 1187.04081435 -265.91796875 1187.9375 C-263.1786106 1189.39175301 -263.1786106 1189.39175301 -260.125 1189.1875 C-260.125 1189.8475 -260.125 1190.5075 -260.125 1191.1875 C-259.30322266 1191.49880859 -259.30322266 1191.49880859 -258.46484375 1191.81640625 C-253.14471976 1193.88390159 -247.96528832 1196.17286498 -242.8125 1198.625 C-237.10340089 1201.33257123 -231.34576547 1203.74929419 -225.41796875 1205.94921875 C-222.88128499 1206.90310813 -220.38415804 1207.90312561 -217.87890625 1208.93359375 C-196.60105985 1217.46980956 -174.40427494 1224.80829792 -152.125 1230.1875 C-150.44180664 1230.60008057 -150.44180664 1230.60008057 -148.72460938 1231.02099609 C-52.1206622 1254.58199596 44.47629668 1255.78919639 170.12597656 1226.03417969 C173.32596976 1225.04860452 176.53408305 1224.09164711 179.7421875 1223.1328125 C198.69148421 1217.41641206 217.31002777 1210.96675588 235.515625 1203.18359375 C238.93047942 1201.74189197 242.39382034 1200.45946949 245.875 1199.1875 C245.875 1198.5275 245.875 1197.8675 245.875 1197.1875 C248.845 1196.5275 251.815 1195.8675 254.875 1195.1875 C254.875 1194.5275 254.875 1193.8675 254.875 1193.1875 C255.535 1193.09726563 256.195 1193.00703125 256.875 1192.9140625 C260.81361936 1191.96017812 264.23429375 1190.31627974 267.875 1188.5625 C269.00059326 1188.02616943 269.00059326 1188.02616943 270.14892578 1187.47900391 C276.84453659 1184.26004238 283.37574671 1180.78695675 289.875 1177.1875 C291.8951716 1176.08212309 293.91597203 1174.97789439 295.9375 1173.875 C297.22333984 1173.16923828 297.22333984 1173.16923828 298.53515625 1172.44921875 C300.62992929 1171.31964998 302.73965703 1170.23791121 304.875 1169.1875 C304.875 1168.5275 304.875 1167.8675 304.875 1167.1875 C305.390625 1167.10371094 305.90625 1167.01992187 306.4375 1166.93359375 C309.86860993 1165.88336619 312.80447659 1164.06469219 315.875 1162.25 C323.42899473 1157.83296752 323.42899473 1157.83296752 326.875 1156.1875 C326.875 1155.5275 326.875 1154.8675 326.875 1154.1875 C327.61234375 1153.91421875 328.3496875 1153.6409375 329.109375 1153.359375 C331.71079226 1152.25707955 333.80540453 1151.03544354 336.125 1149.4375 C339.11558914 1147.39130743 342.11535775 1145.36370489 345.13671875 1143.36328125 C357.99930428 1134.79440859 370.24615842 1125.49405271 382.13525391 1115.62744141 C384.57511101 1113.6080368 387.03919564 1111.61879039 389.5 1109.625 C402.0542314 1099.33619381 414.53830731 1088.81788939 425.875 1077.1875 C428.72816778 1074.26117407 431.63911752 1071.52014576 434.75 1068.875 C442.17486945 1062.50885695 442.17486945 1062.50885695 446.875 1054.1875 C447.535 1054.1875 448.195 1054.1875 448.875 1054.1875 C450.24402326 1052.91231421 450.24402326 1052.91231421 451.6875 1051.125 C452.30753906 1050.39410156 452.92757812 1049.66320313 453.56640625 1048.91015625 C454.32824219 1048.01167969 455.09007813 1047.11320312 455.875 1046.1875 C456.86135522 1045.05951082 457.8497847 1043.9333334 458.83984375 1042.80859375 C465.66480039 1035.03945276 472.2259063 1027.12276633 478.53125 1018.92675781 C479.93737418 1017.10676714 481.3580147 1015.29882108 482.78125 1013.4921875 C483.70857298 1012.30747921 484.63566487 1011.12258999 485.5625 1009.9375 C485.99715576 1009.38819824 486.43181152 1008.83889648 486.87963867 1008.27294922 C489.1887736 1005.55116928 489.1887736 1005.55116928 489.875 1002.1875 C490.535 1002.1875 491.195 1002.1875 491.875 1002.1875 C492.91990658 1000.54861379 493.90778729 998.8734055 494.875 997.1875 C496.49707709 994.80139092 498.18750494 992.46515859 499.875 990.125 C500.31328125 989.51333984 500.7515625 988.90167969 501.203125 988.27148438 C501.63109375 987.67529297 502.0590625 987.07910156 502.5 986.46484375 C502.90863281 985.89491699 503.31726562 985.32499023 503.73828125 984.73779297 C504.68582022 983.44550936 505.68118032 982.18846188 506.6875 980.94140625 C508.15532212 979.12648811 508.15532212 979.12648811 507.875 976.1875 C508.535 976.1875 509.195 976.1875 509.875 976.1875 C513.11159194 970.985974 513.11159194 970.985974 514.875 965.1875 C515.535 965.1875 516.195 965.1875 516.875 965.1875 C518.91669485 962.28201118 519.875 960.78607954 519.875 957.1875 C520.535 957.1875 521.195 957.1875 521.875 957.1875 C522.20371094 956.5790625 522.53242188 955.970625 522.87109375 955.34375 C525.98979461 949.59655059 529.16252475 943.882588 532.375 938.1875 C533.51842642 936.15466182 534.66137697 934.12155679 535.80419922 932.08837891 C536.7939176 930.33143697 537.78928709 928.57768163 538.78515625 926.82421875 C539.33042969 925.85097656 539.87570312 924.87773438 540.4375 923.875 C540.91316406 923.03324219 541.38882813 922.19148438 541.87890625 921.32421875 C543.0862613 919.12723918 543.0862613 919.12723918 542.875 916.1875 C543.535 916.1875 544.195 916.1875 544.875 916.1875 C545.18953125 915.4140625 545.5040625 914.640625 545.828125 913.84375 C547.80885586 909.02317611 549.77635346 904.24852472 552.1875 899.625 C554.0953366 896.37689426 554.0953366 896.37689426 553.875 893.1875 C554.535 893.1875 555.195 893.1875 555.875 893.1875 C558.9037169 886.03457286 561.81178275 878.84899322 564.56640625 871.5859375 C565.59165125 868.92336094 566.64958065 866.28158667 567.72460938 863.63916016 C569.84780509 858.33431851 571.74630027 852.96991974 573.58984375 847.5625 C574.09627159 846.08293823 574.09627159 846.08293823 574.6129303 844.57348633 C575.32268578 842.49656706 576.03103526 840.41916683 576.73803711 838.34130859 C577.80085607 835.22167775 578.8718685 832.10494245 579.94335938 828.98828125 C585.87224309 811.65395074 590.85313448 794.2594623 594.8125 776.375 C594.98075287 775.61824982 595.14900574 774.86149963 595.32235718 774.08181763 C601.21510036 747.40319641 605.36758676 720.39230574 607.875 693.1875 C608.0294458 691.64956787 608.0294458 691.64956787 608.18701172 690.08056641 C611.82483101 653.31732784 610.8236565 615.88031337 606.875 579.1875 C606.7925 578.42087036 606.71 577.65424072 606.625 576.86437988 C601.5167374 530.18026272 590.35854894 484.86736819 575.6875 440.3125 C575.366604 439.33192627 575.04570801 438.35135254 574.71508789 437.34106445 C572.99312409 432.18139755 571.07250776 427.22090838 568.80541992 422.27734375 C567.39767282 419.11536129 566.2670789 415.89261463 565.125 412.625 C564.69703125 411.40683594 564.2690625 410.18867187 563.828125 408.93359375 C563.51359375 408.02738281 563.1990625 407.12117188 562.875 406.1875 C562.215 406.1875 561.555 406.1875 560.875 406.1875 C560.74996094 405.465625 560.62492187 404.74375 560.49609375 404 C556.08287876 384.01563025 542.83928716 363.52014133 532.5546875 346.08203125 C530.95864303 343.33163834 529.43846676 340.55315683 527.9375 337.75 C525.01924875 332.33151728 521.79448522 327.13990325 518.51171875 321.9375 C516.875 319.1875 516.875 319.1875 515.875 316.1875 C515.215 316.1875 514.555 316.1875 513.875 316.1875 C513.61589844 315.465625 513.35679688 314.74375 513.08984375 314 C511.82428039 311.07007839 510.31079098 308.76579296 508.4375 306.1875 C506.08100833 302.9301465 503.94191316 299.63426377 501.875 296.1875 C501.17375 295.32125 500.4725 294.455 499.75 293.5625 C497.875 291.1875 497.875 291.1875 496.875 288.1875 C496.215 288.1875 495.555 288.1875 494.875 288.1875 C494.565625 287.1665625 494.565625 287.1665625 494.25 286.125 C492.68672229 282.78527035 490.70196939 280.52373587 488.21484375 277.8359375 C486.875 276.1875 486.875 276.1875 485.875 273.1875 C485.215 273.1875 484.555 273.1875 483.875 273.1875 C483.67003906 272.50945312 483.46507813 271.83140625 483.25390625 271.1328125 C481.39482285 267.16185249 478.73088505 264.30156397 475.8125 261.0625 C474.62634568 259.72246708 473.44145527 258.38131437 472.2578125 257.0390625 C471.67805664 256.38325195 471.09830078 255.72744141 470.50097656 255.05175781 C468.33183007 252.56473039 466.25521131 250.00916963 464.1875 247.4375 C460.43026348 242.79782995 456.48035131 238.37309073 452.4296875 233.98828125 C451.0906865 232.52029392 449.75583647 231.04758362 448.4675293 229.53491211 C443.18054973 223.33467528 437.44634302 217.60730959 431.67797852 211.86010742 C429.941064 210.128553 428.20956111 208.39171641 426.47851562 206.65429688 C421.31498197 201.48761672 416.14692108 196.39087204 410.58520508 191.64819336 C407.36595021 188.89861422 404.28979273 185.98948463 401.18945312 183.10742188 C396.19185781 177.71805806 396.19185781 177.71805806 389.875 175.1875 C389.875 174.5275 389.875 173.8675 389.875 173.1875 C387.4 172.1975 387.4 172.1975 384.875 171.1875 C384.875 170.5275 384.875 169.8675 384.875 169.1875 C383.21729079 167.85130379 381.49647984 166.59287861 379.75 165.375 C376.49868876 163.07774148 373.31604104 160.80155442 370.3125 158.1875 C368.1428088 155.97606113 368.1428088 155.97606113 365.875 156.1875 C365.875 155.5275 365.875 154.8675 365.875 154.1875 C364.885 154.1875 363.895 154.1875 362.875 154.1875 C362.875 153.5275 362.875 152.8675 362.875 152.1875 C361.50730223 151.21301534 360.1293836 150.25057763 358.7109375 149.3515625 C356.77337894 148.12306793 354.88675633 146.83631861 353 145.53125 C352.32453125 145.06589844 351.6490625 144.60054687 350.953125 144.12109375 C349.56770833 143.16536458 348.18229167 142.20963542 346.796875 141.25390625 C345.45432658 140.32898262 344.11061429 139.40574561 342.765625 138.484375 C341.5432495 137.64588602 340.32424181 136.80245666 339.109375 135.953125 C336.25844928 133.82874168 336.25844928 133.82874168 332.875 133.1875 C332.875 132.5275 332.875 131.8675 332.875 131.1875 C329.07072508 128.9861134 329.07072508 128.9861134 324.875 128.1875 C324.875 127.5275 324.875 126.8675 324.875 126.1875 C323.08618264 125.18241199 321.29385304 124.18357264 319.5 123.1875 C318.50226562 122.630625 317.50453125 122.07375 316.4765625 121.5 C314.06304491 120.03735732 314.06304491 120.03735732 311.875 120.1875 C311.875 119.5275 311.875 118.8675 311.875 118.1875 C310.9571875 117.74019531 310.039375 117.29289063 309.09375 116.83203125 C297.93822624 111.35172412 297.93822624 111.35172412 294 108.75 C288.23522994 104.97783524 281.91305544 102.11731495 275.72949219 99.10449219 C273.99520478 98.24693775 272.28176922 97.34756983 270.5703125 96.4453125 C267.91763466 94.97605727 267.91763466 94.97605727 264.875 95.1875 C264.875 94.5275 264.875 93.8675 264.875 93.1875 C261.96899739 91.93085022 260.07895416 91.1875 256.875 91.1875 C256.875 90.5275 256.875 89.8675 256.875 89.1875 C256.18535156 88.94515625 255.49570313 88.7028125 254.78515625 88.453125 C249.59021621 86.60033431 244.49977831 84.6500691 239.48071289 82.36450195 C228.60860881 77.45356653 217.63668629 73.17088403 206.375 69.25 C205.63111023 68.98982086 204.88722046 68.72964172 204.12078857 68.46157837 C199.0445164 66.68696594 193.96226752 64.93032763 188.875 63.1875 C187.80024414 62.81915039 186.72548828 62.45080078 185.61816406 62.07128906 C131.22328663 43.6301442 71.30055871 34.07742227 13.875 33.1875 C12.93430664 33.16703613 11.99361328 33.14657227 11.02441406 33.12548828 C-45.67817447 31.97931167 -102.59225087 39.88079649 -157.25030518 54.6809082 Z " fill="#000000" transform="translate(1900.125,756.8125)"/>
</svg>
